# xmcd
#
# Track frame offsets: 
#        150
#        22506
#        44555
#        60007
#        74417
#        86072
#        107725
#        126157
#        138825
#        154160
#
# Disc length: 2171 seconds
#
# Revision: 0
# Processed by: cddbd v1.5.2PL0 Copyright (c) Steve Scherf et al.
# Submitted via: ExactAudioCopy v0.99pb4
#
DISCID=7a08790a
DTITLE=Van de Ven Band - Off the Road
DYEAR=2002
DGENRE=Rhythmic Soul
TTITLE0=Lazy Lady
TTITLE1=You're too Beautiful
TTITLE2=Take the Money and Run
TTITLE3=Heart of Gold
TTITLE4=Burning Fire
TTITLE5=Mystery
TTITLE6=Hee-Hoo
TTITLE7=Life is for the Living
TTITLE8=It's a rainy day
TTITLE9=Roses
EXTD=
EXTT0=
EXTT1=
EXTT2=
EXTT3=
EXTT4=
EXTT5=
EXTT6=
EXTT7=
EXTT8=
EXTT9=
PLAYORDER=
